<svg width="28" height="24" viewBox="0 0 28 24" fill="none" xmlns="http://www.w3.org/2000/svg">
<path d="M26.7465 4.91832C26.3309 3.95586 25.7315 3.08369 24.982 2.35064C24.232 1.61539 23.3476 1.0311 22.3771 0.62954C21.3708 0.211494 20.2914 -0.0024864 19.2016 2.1797e-05C17.6728 2.1797e-05 16.1812 0.418667 14.8849 1.20944C14.5748 1.39861 14.2802 1.60638 14.0011 1.83276C13.722 1.60638 13.4274 1.39861 13.1173 1.20944C11.8211 0.418667 10.3295 2.1797e-05 8.80063 2.1797e-05C7.69975 2.1797e-05 6.63298 0.210895 5.62513 0.62954C4.65139 1.03268 3.77379 1.61258 3.02023 2.35064C2.26976 3.08287 1.67026 3.95524 1.25572 4.91832C0.824668 5.91997 0.604492 6.98364 0.604492 8.07832C0.604492 9.11097 0.815365 10.187 1.23401 11.2817C1.58443 12.1965 2.0868 13.1455 2.72873 14.1037C3.74588 15.6201 5.14446 17.2017 6.88106 18.8049C9.75886 21.4625 12.6087 23.2984 12.7297 23.3728L13.4646 23.8442C13.7903 24.0519 14.2089 24.0519 14.5345 23.8442L15.2695 23.3728C15.3904 23.2953 18.2372 21.4625 21.1181 18.8049C22.8547 17.2017 24.2533 15.6201 25.2704 14.1037C25.9123 13.1455 26.4178 12.1965 26.7651 11.2817C27.1838 10.187 27.3947 9.11097 27.3947 8.07832C27.3978 6.98364 27.1776 5.91997 26.7465 4.91832Z" fill="white"/>
</svg>
