<svg width="27" height="24" viewBox="0 0 27 24" fill="none" xmlns="http://www.w3.org/2000/svg">
<path d="M26.142 4.91832C25.7264 3.95586 25.127 3.08369 24.3775 2.35064C23.6275 1.61539 22.7432 1.0311 21.7726 0.62954C20.7663 0.211494 19.6869 -0.0024864 18.5971 2.1797e-05C17.0683 2.1797e-05 15.5767 0.418667 14.2804 1.20944C13.9703 1.39861 13.6757 1.60638 13.3966 1.83276C13.1175 1.60638 12.8229 1.39861 12.5128 1.20944C11.2166 0.418667 9.72496 2.1797e-05 8.19614 2.1797e-05C7.09525 2.1797e-05 6.02849 0.210895 5.02064 0.62954C4.0469 1.03268 3.1693 1.61258 2.41574 2.35064C1.66527 3.08287 1.06577 3.95524 0.651225 4.91832C0.220176 5.91997 0 6.98364 0 8.07832C0 9.11097 0.210873 10.187 0.629518 11.2817C0.979939 12.1965 1.48231 13.1455 2.12423 14.1037C3.14139 15.6201 4.53997 17.2017 6.27657 18.8049C9.15437 21.4625 12.0043 23.2984 12.1252 23.3728L12.8601 23.8442C13.1858 24.0519 13.6044 24.0519 13.93 23.8442L14.665 23.3728C14.7859 23.2953 17.6327 21.4625 20.5136 18.8049C22.2502 17.2017 23.6488 15.6201 24.6659 14.1037C25.3079 13.1455 25.8133 12.1965 26.1607 11.2817C26.5793 10.187 26.7902 9.11097 26.7902 8.07832C26.7933 6.98364 26.5731 5.91997 26.142 4.91832ZM13.3966 21.3912C13.3966 21.3912 2.35682 14.3177 2.35682 8.07832C2.35682 4.91832 4.97102 2.35684 8.19614 2.35684C10.463 2.35684 12.4291 3.62207 13.3966 5.47031C14.3642 3.62207 16.3302 2.35684 18.5971 2.35684C21.8223 2.35684 24.4365 4.91832 24.4365 8.07832C24.4365 14.3177 13.3966 21.3912 13.3966 21.3912Z" fill="white"/>
</svg>
