<svg width="30" height="30" viewBox="0 0 30 30" fill="none" xmlns="http://www.w3.org/2000/svg">
<path d="M16.6725 1.0415C16.2134 0.628297 15.6176 0.399658 15 0.399658C14.3824 0.399658 13.7866 0.628297 13.3275 1.0415L0 13.0365V26.0365C0 27.0974 0.421427 28.1148 1.17157 28.8649C1.92172 29.6151 2.93913 30.0365 4 30.0365H26C27.0609 30.0365 28.0783 29.6151 28.8284 28.8649C29.5786 28.1148 30 27.0974 30 26.0365V13.0365L16.6725 1.0415ZM18.75 27.5328H11.25V21.2503C11.25 20.2557 11.6451 19.3019 12.3483 18.5986C13.0516 17.8953 14.0054 17.5003 15 17.5003C15.9946 17.5003 16.9484 17.8953 17.6517 18.5986C18.3549 19.3019 18.75 20.2557 18.75 21.2503V27.5328ZM27.5 26.0328C27.5 26.4306 27.342 26.8121 27.0607 27.0934C26.7794 27.3747 26.3978 27.5328 26 27.5328H21.25V21.2503C21.25 19.5927 20.5915 18.0029 19.4194 16.8308C18.2473 15.6587 16.6576 15.0003 15 15.0003C13.3424 15.0003 11.7527 15.6587 10.5806 16.8308C9.40848 18.0029 8.75 19.5927 8.75 21.2503V27.5328H4C3.60218 27.5328 3.22064 27.3747 2.93934 27.0934C2.65804 26.8121 2.5 26.4306 2.5 26.0328V14.149L15 2.899L27.5 14.149V26.0328Z" fill="white"/>
</svg>
